<?xml version="1.0" encoding="utf-8"?>
<!-- Generator: Adobe Illustrator 23.0.5, SVG Export Plug-In . SVG Version: 6.00 Build 0)  -->
<svg version="1.1" id="b6117b06-2b45-45bc-b789-4a82ab6612dd"
	 xmlns="http://www.w3.org/2000/svg" xmlns:xlink="http://www.w3.org/1999/xlink" x="0px" y="0px" viewBox="0 0 1139.2 654.5"
	 style="enable-background:new 0 0 1139.2 654.5;" xml:space="preserve">
<style type="text/css">
	.st0{fill:#F2F2F2;}
	.st1{fill:#FFFF00;}
	.st2{fill:#3F3D56;}
	.st3{opacity:0.1;enable-background:new    ;}
</style>
<title>progressive_app</title>
<circle class="st0" cx="246.8" cy="521.8" r="59.2"/>
<circle class="st1" cx="256.5" cy="513.1" r="59.2"/>
<rect x="304.2" y="447.5" class="st2" width="733" height="2"/>
<path class="st2" d="M683.8,18.7H423.6v-5.4h-118v5.4H44.4c-9.7,0-17.6,7.9-17.6,17.6c0,0,0,0,0,0v356.3c0,9.7,7.9,17.6,17.6,17.6
	h639.4c9.7,0,17.6-7.9,17.6-17.6V36.3C701.4,26.5,693.5,18.7,683.8,18.7L683.8,18.7z"/>
<rect x="50.4" y="49.8" class="st1" width="627.4" height="353.9"/>
<circle class="st1" cx="363.6" cy="33.7" r="6.4"/>
<polygon class="st3" points="498.4,403.7 50.4,403.7 50.4,49.8 "/>
<circle class="st0" cx="148.6" cy="316.9" r="60.3"/>
<rect x="510" y="240.6" class="st2" width="58.6" height="12.2"/>
<rect x="439.1" y="145.3" class="st2" width="200.3" height="5.2"/>
<rect x="439.1" y="161.9" class="st2" width="200.3" height="5.2"/>
<rect x="439.1" y="178.5" class="st2" width="200.3" height="5.2"/>
<rect x="439.1" y="195.1" class="st2" width="200.3" height="5.2"/>
<rect x="439.1" y="211.8" class="st2" width="200.3" height="5.2"/>
<rect x="614.9" y="56.9" class="st0" width="24.5" height="24.5"/>
<path class="st2" d="M650.8,92.8H621V63.1h29.7V92.8z M622.3,91.5h27.2V64.3h-27.2V91.5z"/>
<path class="st2" d="M719,397.2h-61.2v-4.4c0-0.5-0.4-0.9-0.9-0.9l0,0h-21c-0.5,0-0.9,0.4-0.9,0.9l0,0v4.4h-13.1v-4.4
	c0-0.5-0.4-0.9-0.9-0.9h0h-21c-0.5,0-0.9,0.4-0.9,0.9l0,0v4.4h-13.1v-4.4c0-0.5-0.4-0.9-0.9-0.9l0,0h-21c-0.5,0-0.9,0.4-0.9,0.9l0,0
	v4.4h-13.1v-4.4c0-0.5-0.4-0.9-0.9-0.9l0,0h-21c-0.5,0-0.9,0.4-0.9,0.9l0,0v4.4h-13.1v-4.4c0-0.5-0.4-0.9-0.9-0.9l0,0h-21
	c-0.5,0-0.9,0.4-0.9,0.9v0v4.4h-13.1v-4.4c0-0.5-0.4-0.9-0.9-0.9h0h-21c-0.5,0-0.9,0.4-0.9,0.9l0,0v4.4h-13.1v-4.4
	c0-0.5-0.4-0.9-0.9-0.9h0H277.3c-0.5,0-0.9,0.4-0.9,0.9l0,0v4.4h-13.1v-4.4c0-0.5-0.4-0.9-0.9-0.9h0h-21c-0.5,0-0.9,0.4-0.9,0.9v0
	v4.4h-13.1v-4.4c0-0.5-0.4-0.9-0.9-0.9h0h-21c-0.5,0-0.9,0.4-0.9,0.9c0,0,0,0,0,0v4.4h-13.1v-4.4c0-0.5-0.4-0.9-0.9-0.9c0,0,0,0,0,0
	h-21c-0.5,0-0.9,0.4-0.9,0.9l0,0v4.4h-13.1v-4.4c0-0.5-0.4-0.9-0.9-0.9c0,0,0,0,0,0h-21c-0.5,0-0.9,0.4-0.9,0.9c0,0,0,0,0,0v4.4
	h-13.1v-4.4c0-0.5-0.4-0.9-0.9-0.9c0,0,0,0,0,0H98c-0.5,0-0.9,0.4-0.9,0.9c0,0,0,0,0,0v4.4H84v-4.4c0-0.5-0.4-0.9-0.9-0.9
	c0,0,0,0,0,0h-21c-0.5,0-0.9,0.4-0.9,0.9v0v4.4H21c-11.6,0-21,9.4-21,21v9.5c0,11.6,9.4,21,21,21h698c11.6,0,21-9.4,21-21v-9.5
	C740,406.6,730.6,397.2,719,397.2z"/>
<path class="st2" d="M163.2,354.5c-42,0-76-34-76-76s34-76,76-76s76,34,76,76C239.1,320.5,205.1,354.5,163.2,354.5z M163.2,204.5
	c-40.9,0-74,33.1-74,74s33.1,74,74,74s74-33.1,74-74C237.1,237.7,204,204.6,163.2,204.5z"/>
<rect x="586.2" y="32.5" class="st2" width="255" height="2"/>
<rect x="406.2" y="560.5" class="st2" width="733" height="2"/>
<rect x="192.7" y="652.5" class="st2" width="255" height="2"/>
<rect x="471" y="550" class="st1" width="28" height="28"/>
<path class="st2" d="M516,562h-34v-34h34V562z M483.5,560.5h31v-31h-31V560.5z"/>
<rect x="796" y="22" class="st1" width="28" height="28"/>
<path class="st2" d="M841,34h-34V0h34V34z M808.5,32.5h31v-31h-31V32.5z"/>
<rect x="1078" y="550" class="st1" width="28" height="28"/>
<path class="st2" d="M1123,562h-34v-34h34V562z M1090.5,560.5h31v-31h-31V560.5z"/>
<path class="st2" d="M1057.2,232h-2.4v-65.2c0-20.8-16.9-37.7-37.7-37.7h0H879c-20.8,0-37.7,16.9-37.7,37.7c0,0,0,0,0,0v357.5
	c0,20.8,16.9,37.7,37.7,37.7c0,0,0,0,0,0h138.1c20.8,0,37.7-16.9,37.7-37.7c0,0,0,0,0,0V278.3h2.4L1057.2,232z"/>
<path class="st1" d="M1046.8,169v357c0,15.6-12.6,28.2-28.2,28.2H879.9c-15.6,0-28.2-12.6-28.2-28.2V169c0-15.6,12.6-28.2,28.2-28.2
	h16.8c-2.8,6.8,0.5,14.7,7.3,17.4c1.6,0.7,3.3,1,5.1,1h79.1c7.4,0,13.4-6,13.4-13.4c0-1.7-0.3-3.4-1-5.1h18
	C1034.2,140.9,1046.8,153.5,1046.8,169z"/>
<rect x="928.6" y="376.2" class="st2" width="41.3" height="12.2"/>
<rect x="878.6" y="280.9" class="st2" width="141.2" height="5.2"/>
<rect x="878.6" y="297.5" class="st2" width="141.2" height="5.2"/>
<rect x="878.6" y="314.1" class="st2" width="141.2" height="5.2"/>
<rect x="878.6" y="330.7" class="st2" width="141.2" height="5.2"/>
<rect x="878.6" y="347.4" class="st2" width="141.2" height="5.2"/>
<rect x="929.7" y="211.2" class="st0" width="24.5" height="24.5"/>
<path class="st2" d="M939.1,217.3V247h29.7v-29.7H939.1z M967.5,245.8h-27.2v-27.2h27.2V245.8z"/>
<path class="st3" d="M1046.8,487.9V526c0,15.6-12.6,28.2-28.2,28.2H879.9c-15.6,0-28.2-12.6-28.2-28.2V333.8l116.9,92.3l2,1.6
	l21.7,17.2l2,1.6L1046.8,487.9z"/>
<circle class="st0" cx="937.2" cy="498.7" r="43.9"/>
<path class="st2" d="M320.2,654.5c-48,0-87-39-87-87s39-87,87-87s87,39,87,87C407.1,615.6,368.2,654.5,320.2,654.5z M320.2,482.5
	c-46.9,0-85,38.1-85,85s38.1,85,85,85s85-38.1,85-85C405.1,520.6,367.1,482.6,320.2,482.5z"/>
<path class="st2" d="M950.2,532.5c-30.4,0-55-24.6-55-55s24.6-55,55-55s55,24.6,55,55C1005.1,507.9,980.5,532.5,950.2,532.5z
	 M950.2,424.5c-29.3,0-53,23.7-53,53s23.7,53,53,53s53-23.7,53-53l0,0C1003.1,448.3,979.4,424.6,950.2,424.5z"/>
</svg>
